<?xml version="1.0" encoding="UTF-8" standalone="no"?>
<svg
   xmlns:dc="http://purl.org/dc/elements/1.1/"
   xmlns:cc="http://creativecommons.org/ns#"
   xmlns:rdf="http://www.w3.org/1999/02/22-rdf-syntax-ns#"
   xmlns:svg="http://www.w3.org/2000/svg"
   xmlns="http://www.w3.org/2000/svg"
   xmlns:xlink="http://www.w3.org/1999/xlink"
   viewBox="0 0 841.88977 595.27557"
   id="svg44"
   height="595.27557"
   width="841.88977"
   version="1.1">
  <metadata
     id="metadata48">
    <rdf:RDF>
      <cc:Work
         rdf:about="">
        <dc:format>image/svg+xml</dc:format>
        <dc:type
           rdf:resource="http://purl.org/dc/dcmitype/StillImage" />
      </cc:Work>
    </rdf:RDF>
  </metadata>
  <path
     id="path2"
     style="fill:none"
     d="M 0,0 H 841.8898 V 595.2756 H 0 Z" />
  <path
     id="path4"
     style="fill:#e4b900;fill-rule:evenodd"
     d="m 327.4912,99.833 c -33.1254,46.913 -51.0838,101.7466 -45.4831,134.2263 14.1796,19.3145 30.2927,35.8484 55.6825,52.4362 5.2338,-2.347 11.0376,-3.6546 17.1436,-3.6546 26.6291,0.2069 41.2944,15.4224 52.6485,34.0031 L 370.2495,205.7756 v -0.002 C 355.408,185.8407 340.0521,160.0659 327.4912,99.833 Z" />
  <path
     id="path6"
     style="fill:#d0a300;fill-rule:evenodd"
     d="m 320.1226,359.739 c -23.4475,-16.5105 -50.7852,-33.0373 -82.6714,-49.5388 -6.329,-3.2751 -12.7372,-7.133 -19.0896,-11.4656 -6.9441,-26.2748 -13.8307,-57.9434 15.3811,-140.3072 38.4921,59.3948 51.2096,93.6119 103.9479,128.0681 -14.6274,6.5593 -24.8215,21.2497 -24.8215,38.3088 0,11.7318 2.8021,23.523 7.2535,34.9347 z" />
  <path
     id="path8"
     style="fill:#e4b900;fill-rule:evenodd"
     d="m 152.4472,365.5123 c -22.3648,-36.2009 -23.9691,-73.9467 -5.9675,-147.4365 17.2425,36.8447 55.3264,73.6751 90.9715,92.1244 31.8862,16.5015 59.2239,33.0283 82.6714,49.5388 7.1383,18.2929 18.5213,35.6127 29.433,50.1629 4.7085,6.2786 9.6293,12.4638 14.7173,18.5644 -77.38,-67.6734 -124.9638,-40.1396 -211.8257,-62.954 z" />
  <path
     id="path10"
     style="fill:#02a834;fill-rule:evenodd"
     d="M 421.4069,489.7315 C 213.6602,517.9145 109.6763,459.1637 67.0762,330.4013 240.3199,425.9268 279.3696,312.4286 421.4069,489.7315 Z" />
  <defs
     id="defs18">
    <linearGradient
       id="grad1">
      <stop
         id="stop12"
         stop-opacity="1"
         stop-color="#fae70e"
         offset="0%" />
      <stop
         id="stop14"
         stop-opacity="1"
         stop-color="#ffffff"
         offset="100%" />
    </linearGradient>
    <linearGradient
       gradientUnits="objectBoundingBox"
       gradientTransform="rotate(77,0.5,0.5)"
       y2="1"
       x2="0"
       y1="0"
       x1="0"
       id="grad2"
       xlink:href="#grad1" />
  </defs>
  <path
     id="path20"
     style="fill:url(#grad2)"
     d="m 421.4069,397.8175 -8.0124,14.9908" />
  <path
     id="path22"
     style="fill:#d0a300;fill-rule:evenodd"
     d="M 407.4827,316.844 370.2495,205.7756 c 4.3614,-29.1452 28.3502,-119.9369 51.1574,-142.1254 22.8072,22.1885 46.796,112.9802 51.1575,142.1254 L 435.3312,316.844 c -5.0413,8.248 -9.4315,17.1598 -13.9243,25.7136 -4.4927,-8.5538 -8.8829,-17.4656 -13.9242,-25.7136 z" />
  <path
     id="path24"
     style="fill:#d12315;fill-rule:evenodd"
     d="m 354.8342,282.8409 c -23.1668,0 -41.9651,18.7983 -41.9651,41.9634 0,30.5409 18.9673,61.472 36.6865,85.0976 21.1489,28.2009 46.6035,54.5081 71.8513,79.8296 25.2478,-25.3215 50.7025,-51.6287 71.8514,-79.8296 17.7191,-23.6256 36.6865,-54.5567 36.6865,-85.0976 0,-23.1651 -18.7983,-41.9634 -41.9652,-41.9634 -38.4508,0.2986 -51.9614,31.8934 -66.5727,59.7167 -14.6112,-27.8233 -28.1218,-59.4181 -66.5727,-59.7167 z" />
  <path
     id="path26"
     style="fill:#e4b900;fill-rule:evenodd"
     d="m 515.3227,99.833 c 33.1254,46.913 51.0837,101.7466 45.4831,134.2263 -14.1796,19.3145 -30.2927,35.8484 -55.6826,52.4362 -5.2337,-2.347 -11.0376,-3.6546 -17.1436,-3.6546 -26.6291,0.2069 -41.2943,15.4224 -52.6484,34.0031 l 37.2332,-111.0684 v -0.002 c 14.8415,-19.9331 30.1973,-45.7079 42.7583,-105.9408 z" />
  <path
     id="path28"
     style="fill:#d0a300;fill-rule:evenodd"
     d="m 522.6913,359.739 c 23.4475,-16.5105 50.7852,-33.0373 82.6713,-49.5388 6.3291,-3.2751 12.7372,-7.133 19.0897,-11.4656 6.9441,-26.2748 13.8307,-57.9434 -15.3811,-140.3072 -38.4922,59.3948 -51.2096,93.6119 -103.948,128.0681 14.6275,6.5593 24.8216,21.2497 24.8216,38.3088 0,11.7318 -2.8021,23.523 -7.2535,34.9347 z" />
  <path
     id="path30"
     style="fill:#e4b900;fill-rule:evenodd"
     d="m 690.3667,365.5123 c 22.3647,-36.2009 23.969,-73.9467 5.9675,-147.4365 -17.2425,36.8447 -55.3265,73.6751 -90.9716,92.1244 -31.8861,16.5015 -59.2238,33.0283 -82.6713,49.5388 -7.1384,18.2929 -18.5213,35.6127 -29.433,50.1629 -4.7086,6.2786 -9.6293,12.4638 -14.7174,18.5644 77.3801,-67.6734 124.9638,-40.1396 211.8258,-62.954 z" />
  <path
     id="path32"
     style="fill:#02a834;fill-rule:evenodd"
     d="m 421.4069,489.7315 c 207.7467,28.1829 311.7305,-30.5677 354.3307,-159.3303 -147.564,81.3662 -197.7808,11.1214 -297.197,98.066 -17.7565,21.3012 -37.5074,41.5808 -57.1337,61.2643 z" />
  <defs
     id="defs40">
    <linearGradient
       id="grad3">
      <stop
         id="stop34"
         stop-opacity="1"
         stop-color="#fae70e"
         offset="0%" />
      <stop
         id="stop36"
         stop-opacity="1"
         stop-color="#ffffff"
         offset="100%" />
    </linearGradient>
    <linearGradient
       gradientUnits="objectBoundingBox"
       gradientTransform="rotate(77,0.5,0.5)"
       y2="1"
       x2="0"
       y1="0"
       x1="0"
       id="grad4"
       xlink:href="#grad3" />
  </defs>
  <path
     id="path42"
     style="fill:url(#grad4)"
     d="m 421.4069,397.8175 8.0125,14.9908" />
</svg>
